<svg xmlns="http://www.w3.org/2000/svg" version="1.1" viewBox="-5.0 -10.0 110.0 135.0">
 <path fill="currentColor" d="m68.016 27.133c0.33594-0.49219 0.89453-0.78906 1.4922-0.78906 0.35938 0 0.71094 0.10938 1.0117 0.3125 7.6094 5.1719 12.91 12.895 14.961 21.793 0.22656-0.10156 0.47656-0.15234 0.73047-0.15234 0.3125 0 0.625 0.082031 0.89844 0.24219 0.41797 0.24219 0.71484 0.62891 0.83984 1.0938 0.125 0.46484 0.0625 0.94922-0.17969 1.3672l-1.7695 3.0664c-0.007812 0.015625-0.015625 0.027344-0.027344 0.042969-0.019531 0.027344-0.035156 0.058594-0.054687 0.082031-0.015625 0.019532-0.027344 0.039063-0.046875 0.066406-0.019532 0.023438-0.039063 0.050782-0.058594 0.074219-0.019531 0.019531-0.035156 0.042969-0.054688 0.0625-0.019531 0.023438-0.042968 0.046875-0.066406 0.066407-0.019531 0.019531-0.039062 0.035156-0.058594 0.054687-0.023437 0.019531-0.046874 0.042969-0.074218 0.0625-0.019532 0.015625-0.039063 0.03125-0.058594 0.042969-0.027344 0.019531-0.054688 0.039062-0.085938 0.058594-0.019531 0.011718-0.039062 0.023437-0.0625 0.039062-0.03125 0.019531-0.0625 0.035156-0.09375 0.050781-0.019531 0.011719-0.042968 0.019531-0.0625 0.03125-0.03125 0.015625-0.066406 0.027344-0.097656 0.042969-0.023437 0.007812-0.046875 0.015625-0.070312 0.023438-0.03125 0.011718-0.0625 0.023437-0.089844 0.027343-0.011719 0.003907-0.023438 0.007813-0.039062 0.011719-0.015626 0.003906-0.027344 0.007812-0.042969 0.007812-0.046875 0.011719-0.097657 0.019532-0.14844 0.027344l-0.011719 0.003906c-0.015624 0.003907-0.03125 0.003907-0.046874 0.007813-0.011719 0.003906-0.023438 0.003906-0.039063 0.003906-0.054687 0.003907-0.10938 0.007813-0.16406 0.007813h-0.019531c-0.066406 0-0.13281-0.003906-0.21484-0.015625-0.011719 0-0.027344-0.003907-0.042969-0.007813-0.0625-0.007812-0.125-0.019531-0.18359-0.035156-0.007813-0.003906-0.019531-0.003906-0.027344-0.007812-0.070312-0.019532-0.14062-0.042969-0.20703-0.070313-0.007812-0.003906-0.019531-0.007813-0.03125-0.011719-0.050781-0.023437-0.10547-0.046875-0.15625-0.078125-0.011719-0.003906-0.023438-0.011719-0.035156-0.019531l-2.418-1.3984c-0.41797-0.24219-0.71484-0.62891-0.83984-1.0938-0.125-0.46484-0.0625-0.94922 0.17969-1.3672 0.32031-0.55469 0.91797-0.89844 1.5586-0.89844 0.035157 0 0.074219 0 0.10938 0.003906-1.7227-8.3164-6.5469-15.523-13.633-20.336-0.82031-0.55859-1.0352-1.6797-0.47656-2.5zm-28.277-0.25391v-17.996c0-0.99219 0.80859-1.8008 1.8008-1.8008h18c0.99219 0 1.8008 0.80859 1.8008 1.8008v18c0 0.99219-0.80859 1.8008-1.8008 1.8008h-18c-0.99219 0-1.8008-0.80859-1.8008-1.8008zm18-1.8008v-14.398h-14.398v14.398zm-42.035 30.875c0.042969 0.003906 0.089844 0.003906 0.13281 0.003906 0.9375 0 1.7266-0.73438 1.793-1.668 0.625-8.543 4.4531-16.324 10.797-21.973 0.29688 0.59375 0.91016 0.99609 1.6094 0.99609 0.99219 0 1.8008-0.80859 1.8008-1.8008v-2.793-0.03125c0-0.03125-0.003907-0.066406-0.003907-0.10156v-0.015626c0-0.019531-0.003906-0.039062-0.003906-0.054687-0.003906-0.035156-0.007813-0.066406-0.015625-0.10156l-0.003906-0.011718c-0.003906-0.019532-0.007813-0.042969-0.011719-0.0625-0.003906-0.027344-0.011719-0.050782-0.019531-0.078125l-0.003906-0.011719-0.003907-0.015625c-0.007812-0.023437-0.011719-0.042969-0.019531-0.066406-0.007812-0.019531-0.015625-0.042969-0.023438-0.066407l-0.007812-0.03125c-0.007812-0.023437-0.019531-0.050781-0.03125-0.074218-0.007812-0.019532-0.015625-0.039063-0.027344-0.054688l-0.007812-0.011718c-0.015625-0.03125-0.03125-0.0625-0.046875-0.089844-0.007813-0.015625-0.019531-0.035156-0.03125-0.050782l-0.007813-0.011718c-0.015625-0.027344-0.035156-0.054688-0.054687-0.082032-0.003907-0.007812-0.011719-0.015624-0.015625-0.027343-0.011719-0.015625-0.019532-0.027344-0.03125-0.039063-0.023438-0.027344-0.042969-0.054687-0.0625-0.082031-0.019532-0.023437-0.039063-0.042969-0.058594-0.0625s-0.039062-0.042969-0.058594-0.0625c-0.023437-0.023437-0.046875-0.042969-0.070312-0.066406-0.019532-0.015625-0.039063-0.035157-0.058594-0.050781-0.027344-0.019532-0.050781-0.039063-0.078125-0.058594-0.019531-0.015625-0.042969-0.027344-0.0625-0.042969-0.027344-0.015625-0.054687-0.035156-0.082031-0.050781-0.023438-0.015625-0.050782-0.027344-0.074219-0.039063-0.027344-0.011719-0.050781-0.023437-0.078125-0.035156s-0.058594-0.023437-0.085938-0.035156c-0.023437-0.007813-0.046874-0.019531-0.070312-0.027344-0.03125-0.011719-0.0625-0.019531-0.09375-0.03125-0.023438-0.007813-0.046875-0.011719-0.070312-0.019531-0.03125-0.007813-0.066407-0.015625-0.097657-0.019532-0.027343-0.003906-0.054687-0.007812-0.082031-0.011718-0.03125-0.003906-0.058594-0.007813-0.089844-0.011719s-0.066406-0.003906-0.097656-0.003906c-0.019531 0-0.035156-0.003907-0.054688-0.003907h-3.543c-0.99219 0-1.8008 0.80859-1.8008 1.8008 0 0.58984 0.28125 1.1211 0.73828 1.4531-6.6797 6.2266-10.719 14.676-11.395 23.852-0.074218 0.98828 0.67188 1.8555 1.6641 1.9258zm15.887 26.562c0.32422 0.55859 0.32812 1.25 0.003906 1.8086-0.32031 0.55469-0.91797 0.89844-1.5586 0.89844h-0.007812l-11.613-0.066406-11.602 0.066406h-0.007812c-0.64063 0-1.2383-0.34375-1.5586-0.89844-0.32422-0.55859-0.32031-1.25 0.003906-1.8086l5.8672-10.027 5.7422-10.082c0.32031-0.5625 0.91797-0.91016 1.5625-0.91016s1.2461 0.34766 1.5625 0.91016l5.75 10.094 5.8594 10.016zm-8.9766-8.2148-4.1953-7.3633-4.1914 7.3555-4.2812 7.3164 8.4648-0.050781 8.4766 0.050781-4.2734-7.3047zm42.582 11.531c-0.27344 0-0.53516 0.058594-0.78125 0.17969-4.4336 2.1445-9.3594 3.2773-14.246 3.2773-3.4688 0-6.8906-0.55078-10.184-1.6406 0.36719-0.55469 0.40625-1.2852 0.058594-1.8906-0.32031-0.55469-0.91797-0.89844-1.5586-0.89844-0.3125 0-0.625 0.082031-0.89844 0.24219l-2.418 1.3984c-0.007813 0.003906-0.019531 0.011719-0.027344 0.015625-0.027344 0.015625-0.054687 0.035156-0.082031 0.054687l-0.011719 0.007813c-0.015625 0.011719-0.03125 0.023437-0.046875 0.035156-0.023438 0.019531-0.050781 0.039063-0.074219 0.058594l-0.015625 0.011719c-0.015625 0.015625-0.035156 0.027344-0.050781 0.042968-0.019531 0.015626-0.035156 0.035157-0.054687 0.054688l-0.019532 0.019531c-0.015625 0.015625-0.035156 0.035157-0.050781 0.050781-0.015625 0.015626-0.027344 0.03125-0.042969 0.050782l-0.011718 0.011718-0.007813 0.011719c-0.019531 0.023438-0.035156 0.042969-0.050781 0.066407-0.011719 0.015624-0.023438 0.03125-0.035156 0.050781l-0.007813 0.011719c-0.019531 0.03125-0.039063 0.058593-0.058594 0.089843-0.011719 0.015625-0.019531 0.035157-0.027343 0.050781l-0.007813 0.011719c-0.015625 0.03125-0.03125 0.058594-0.046875 0.089844-0.003906 0.007813-0.007812 0.019531-0.015625 0.027344-0.007813 0.015625-0.011719 0.03125-0.019531 0.042969-0.015625 0.035156-0.027344 0.066406-0.039063 0.097656-0.007812 0.027344-0.019531 0.054687-0.027343 0.082031-0.007813 0.027344-0.015626 0.054687-0.023438 0.082031-0.007812 0.03125-0.015625 0.0625-0.019531 0.097656-0.003907 0.023438-0.007813 0.046876-0.011719 0.074219-0.003906 0.035157-0.007812 0.066407-0.011719 0.10156-0.003906 0.023437-0.003906 0.046875-0.003906 0.074218 0 0.03125-0.003906 0.0625-0.003906 0.09375 0 0.027344 0 0.054688 0.003906 0.082032 0 0.03125 0.003906 0.058594 0.007813 0.085937 0.003906 0.03125 0.007812 0.058594 0.011718 0.089844 0.003906 0.027344 0.007813 0.054687 0.015625 0.078125 0.007813 0.03125 0.011719 0.0625 0.019531 0.09375 0.007813 0.023438 0.011719 0.050781 0.019532 0.078125 0.007812 0.027344 0.019531 0.058594 0.027344 0.089844 0.011718 0.027343 0.019531 0.054687 0.03125 0.082031 0.011718 0.027344 0.019531 0.050781 0.035156 0.078125l0.046875 0.09375c0.007812 0.015625 0.015625 0.03125 0.023437 0.042969l1.7695 3.0664c0.32031 0.55469 0.91797 0.89844 1.5586 0.89844 0.3125 0 0.625-0.082032 0.89844-0.24219 0.51172-0.29297 0.83203-0.80469 0.89062-1.3672 3.4219 1.0469 6.9648 1.5781 10.539 1.5781 5.4258 0 10.895-1.2578 15.816-3.6367 0.43359-0.21094 0.75781-0.57422 0.91797-1.0273 0.15625-0.45312 0.12891-0.94141-0.078125-1.375-0.29688-0.61719-0.93359-1.0156-1.6211-1.0156zm4.6758-21.324h-2.832v3.6875c0 2.2305 0 5.9609-3.6172 6.4492-0.35156 0.046875-0.74219 0.066407-1.3047 0.066407-0.21875 0-0.44922-0.003907-0.69141-0.007813-0.26562-0.003906-0.53906-0.007813-0.82031-0.007813h-0.19922v3.6211c0 1.7422-1.418 3.1602-3.1602 3.1602h-16.949c-1.7422 0-3.1602-1.418-3.1602-3.1602v-8.4922c-0.40625-0.25-0.81641-0.52344-1.2305-0.82031-0.37109 0.17969-0.77734 0.27344-1.1992 0.27344h-2.1875c-1.375 0-2.4805-0.96875-2.8203-2.4688l-0.31641-1.3945c-0.23437-0.089843-0.46875-0.18359-0.69531-0.28906l-1.2109 0.76172c-0.57031 0.35938-1.1953 0.55078-1.8008 0.55078-0.73438 0-1.4258-0.28516-1.9414-0.80078l-1.5469-1.5469c-0.97266-0.97266-1.0703-2.4375-0.25-3.7383l0.76172-1.2109c-0.10156-0.23047-0.19922-0.46094-0.28906-0.69922l-1.3945-0.31641c-1.5-0.33984-2.4688-1.4492-2.4688-2.8203v-2.1875c0-1.375 0.96875-2.4805 2.4688-2.8203l1.3945-0.31641c0.089844-0.23438 0.18359-0.46875 0.28906-0.69531l-0.76172-1.2109c-0.82031-1.3008-0.71875-2.7695 0.25-3.7383l1.5469-1.5469c0.51562-0.51562 1.2031-0.80078 1.9414-0.80078 0.60547 0 1.2305 0.19141 1.8008 0.55078l1.2109 0.76172c0.23047-0.10547 0.46094-0.19922 0.69531-0.28906l0.31641-1.3945c0.30469-1.332 1.2148-2.2539 2.3945-2.4336 3.9102-4.6914 9.6484-7.3789 15.762-7.3789 5.5117 0 10.688 2.1562 14.57 6.0703 3.8555 3.8867 5.9648 9.0352 5.9531 14.504l4.2422 7.3945c0.57031 0.99219 0.56641 2.1719-0.003906 3.1602-0.57031 0.98828-1.5938 1.5781-2.7383 1.5781zm-6.6133 6.2227c0.17969-0.60547 0.17969-1.5859 0.17969-2.5352v-4.1289c0-1.7422 1.418-3.1602 3.1602-3.1602h2.5156l-3.9258-6.8398c-0.28906-0.5-0.42578-1.0234-0.41797-1.6016 0.039063-4.5469-1.707-8.8281-4.9062-12.059-3.1992-3.2266-7.4688-5.0039-12.016-5.0039-4.2461 0-8.2695 1.5547-11.379 4.3906 0.51562 0.4375 0.88672 1.0703 1.0586 1.8203l0.31641 1.3945c0.23438 0.089844 0.46875 0.18359 0.69531 0.28906l1.2109-0.76172c0.57031-0.35938 1.1953-0.55078 1.8008-0.55078 0.73438 0 1.4258 0.28516 1.9414 0.80078l1.5469 1.5469c0.97266 0.97266 1.0703 2.4375 0.25 3.7422l-0.76172 1.2109c0.10156 0.23047 0.19922 0.46094 0.28906 0.69922l1.3945 0.31641c1.5 0.33984 2.4688 1.4492 2.4688 2.8203v2.1875c0 1.375-0.96875 2.4805-2.4688 2.8203l-1.3945 0.31641c-0.089844 0.23438-0.18359 0.46875-0.28906 0.69531l0.76172 1.2109c0.82031 1.3008 0.71875 2.7695-0.25 3.7383l-1.5469 1.5469c-0.51563 0.51562-1.2031 0.80078-1.9414 0.80078-0.60547 0-1.2305-0.19141-1.8008-0.55078l-1.2109-0.76172c-0.23047 0.10547-0.46094 0.19922-0.69922 0.28906l-0.10547 0.46875c0.47656 0.35547 0.96484 0.68359 1.4531 0.97656 0.96484 0.57422 1.543 1.5898 1.543 2.7148v8.3008h16.074v-3.6172c0-1.7344 1.3711-3.125 3.1211-3.1602 0.21484-0.003906 0.4375-0.007812 0.67578-0.007812 0.30859 0 0.59766 0.003906 0.87109 0.007812 0.23047 0.003906 0.44531 0.003906 0.64844 0.003906 0.38672 0 0.64062-0.011718 0.82031-0.035156 0.1875-0.027344 0.22266-0.03125 0.31641-0.34766zm-38.098-8.7422 0.68359 0.68359 1.7852-1.1211c0.28906-0.17969 0.61719-0.27734 0.95703-0.27734 0.3125 0 0.62109 0.082031 0.89062 0.23437 0.60156 0.34375 1.2422 0.60938 1.9102 0.79297 0.64062 0.17578 1.1289 0.6875 1.2773 1.3359l0.46875 2.0547h0.96484l0.46875-2.0547c0.14844-0.64844 0.63672-1.1602 1.2773-1.3359 0.66406-0.18359 1.3086-0.44922 1.9102-0.79297 0.26953-0.15234 0.57812-0.23437 0.89062-0.23437 0.33984 0 0.67188 0.09375 0.95703 0.27734l1.7812 1.1211 0.68359-0.68359-1.1211-1.7852c-0.35547-0.5625-0.37109-1.2734-0.039062-1.8477 0.34375-0.60156 0.60938-1.2422 0.79297-1.9102 0.17578-0.64062 0.6875-1.1289 1.3359-1.2773l2.0547-0.46875v-0.96484l-2.0547-0.46875c-0.64844-0.14844-1.1602-0.63672-1.3359-1.2773-0.18359-0.66406-0.44922-1.3086-0.79297-1.9102-0.32812-0.57812-0.3125-1.2852 0.042969-1.8477l1.1211-1.7812-0.68359-0.68359-1.7852 1.1211c-0.28906 0.17969-0.62109 0.27734-0.95703 0.27734-0.3125 0-0.62109-0.082031-0.89062-0.23437-0.60156-0.34375-1.2461-0.60938-1.9102-0.79297-0.64062-0.17578-1.1289-0.6875-1.2773-1.3359l-0.46875-2.0547h-0.96484l-0.46875 2.0547c-0.14844 0.64844-0.63672 1.1602-1.2773 1.3359-0.66406 0.18359-1.3086 0.44922-1.9102 0.79297-0.26953 0.15234-0.57812 0.23437-0.89062 0.23437-0.33984 0-0.67188-0.09375-0.96094-0.27734l-1.7852-1.1211-0.68359 0.68359 1.1211 1.7852c0.35547 0.5625 0.37109 1.2734 0.039062 1.8477-0.34375 0.60156-0.60938 1.2422-0.79297 1.9102-0.17578 0.64062-0.6875 1.1289-1.3359 1.2773l-2.0547 0.46875v0.96484l2.0547 0.46875c0.64844 0.14844 1.1602 0.63672 1.3359 1.2773 0.18359 0.66406 0.44922 1.3086 0.79297 1.9102 0.32812 0.57812 0.3125 1.2852-0.042968 1.8477l-1.1211 1.7812zm69.84 3.9375v11.668c0 0.64062-0.34375 1.2383-0.89844 1.5586l-10.105 5.832c-0.27344 0.15625-0.58594 0.24219-0.89844 0.24219-0.31641 0-0.625-0.082031-0.89844-0.24219l-10.105-5.832c-0.55469-0.32031-0.89844-0.91797-0.89844-1.5586v-11.668c0-0.64062 0.34375-1.2383 0.89844-1.5586l10.105-5.832c0.27344-0.15625 0.58594-0.24219 0.89844-0.24219 0.31641 0 0.625 0.082031 0.89844 0.24219l10.105 5.832c0.55469 0.32031 0.89844 0.91797 0.89844 1.5586zm-11.902-3.7539-8.3047 4.793v9.5898l8.3047 4.793 8.3047-4.793v-9.5898zm-56.09-7.9531c0-3.6406 2.9609-6.6016 6.6016-6.6016s6.6016 2.9609 6.6016 6.6016-2.9609 6.6016-6.6016 6.6016-6.6016-2.9609-6.6016-6.6016zm6.6016 3.0039c1.6562 0 3.0039-1.3477 3.0039-3.0039s-1.3477-3.0039-3.0039-3.0039-3.0039 1.3477-3.0039 3.0039 1.3477 3.0039 3.0039 3.0039z"/>
</svg>