<svg xmlns="http://www.w3.org/2000/svg" version="1.1" viewBox="-5.0 -10.0 110.0 135.0">
 <path fill="currentColor" d="m64.996 61.551c0.86328 0 1.5625-0.70312 1.5625-1.5664v-10.703h0.65625c3.3594-0.003906 6.0781-2.7266 6.082-6.082v-21.215c-0.003906-3.3594-2.7227-6.0781-6.082-6.082h-7.6328v-6.6914c0-3.3594-2.7227-6.082-6.082-6.0859h-42.262c-3.3633 0.003906-6.0859 2.7266-6.0898 6.0859v21.211c0.003906 3.3594 2.7266 6.082 6.0898 6.0859h0.65625v10.699c0 0.64453 0.39062 1.2227 0.99219 1.457 0.59766 0.23438 1.2812 0.078126 1.7188-0.39453l4.2773-4.6133c0.24219 3.1719 2.8867 5.6211 6.0664 5.625l28.004 0.023438 10.898 11.746h-0.003906c0.29688 0.31641 0.71094 0.5 1.1484 0.5zm-49.977-18.332v-8.2734c0-0.41406-0.16406-0.8125-0.45703-1.1055-0.29297-0.29297-0.69141-0.46094-1.1055-0.46094h-2.2188c-1.6367 0-2.957-1.3242-2.9609-2.957v-21.211c0.003906-1.6328 1.3242-2.957 2.9609-2.9609h42.266-0.003906c1.6328 0.003906 2.957 1.3281 2.957 2.9609v21.211c-0.003906 1.6328-1.3242 2.957-2.957 2.957l-28.691 0.015625 0.003906 0.003907c-0.4375 0-0.85156 0.17969-1.1484 0.5zm48.41 12.781-8.6484-9.3242c-0.29688-0.32031-0.71094-0.5-1.1445-0.5l-28.684-0.023437h-0.003906c-1.6289 0-2.9531-1.3203-2.957-2.9531v-2.8945l3.5039-3.7773 28.008-0.015625-0.003906-0.003907c3.3594-0.003906 6.082-2.7266 6.082-6.0859v-11.391h7.6328c1.6328 0 2.9531 1.3203 2.9531 2.9531v21.215c0 1.6289-1.3203 2.9531-2.9531 2.9531h-2.2188c-0.41406 0-0.8125 0.16406-1.1055 0.45703s-0.46094 0.69141-0.46094 1.1055zm-18.594-31.23c2.0039 0 3.8125-1.207 4.5781-3.0586 0.76563-1.8516 0.33984-3.9805-1.0742-5.3984-1.418-1.418-3.5508-1.8398-5.3984-1.0742-1.8516 0.76562-3.0625 2.5703-3.0625 4.5742 0.003906 2.7383 2.2227 4.957 4.957 4.957zm0-6.7812c0.74219 0 1.4062 0.44922 1.6875 1.1328 0.28125 0.67969 0.125 1.4688-0.39844 1.9883-0.52344 0.52344-1.3086 0.67578-1.9922 0.39453-0.68359-0.28516-1.125-0.95312-1.125-1.6914 0-0.48438 0.19141-0.94922 0.53516-1.2891 0.34375-0.34375 0.80859-0.53516 1.293-0.53516zm-12.469 6.7812h0.003906c2 0 3.8086-1.207 4.5742-3.0586 0.76563-1.8516 0.33984-3.9805-1.0742-5.3984-1.418-1.418-3.5469-1.8398-5.3984-1.0742-1.8516 0.76562-3.0586 2.5703-3.0625 4.5742 0.003906 2.7383 2.2227 4.957 4.9609 4.957zm0-6.7812h0.003906c0.73828 0 1.4023 0.44922 1.6836 1.1328 0.28125 0.67969 0.125 1.4688-0.39844 1.9883-0.52344 0.52344-1.3086 0.67578-1.9922 0.39453-0.68359-0.28516-1.125-0.95312-1.125-1.6914 0-0.48438 0.19531-0.94922 0.53906-1.2891 0.33984-0.34375 0.80469-0.53516 1.293-0.53516zm-12.465-3.1289c-2.0039 0-3.8125 1.207-4.582 3.0586-0.76562 1.8516-0.34375 3.9844 1.0742 5.4023 1.418 1.418 3.5508 1.8398 5.4023 1.0742 1.8516-0.76953 3.0586-2.5781 3.0547-4.582-0.003906-2.7344-2.2188-4.9453-4.9492-4.9531zm0 6.7812v0.003906c-0.73828 0-1.4062-0.44531-1.6914-1.125-0.28516-0.68359-0.12891-1.4688 0.39453-1.9922 0.51953-0.52344 1.3047-0.68359 1.9883-0.40234 0.68359 0.28516 1.1289 0.94922 1.1328 1.6875-0.003906 1.0078-0.81641 1.8281-1.8242 1.832zm62.836 54.137h-0.14453c-0.41406 0-0.81641 0.16797-1.1094 0.46484-1.1484 1.1602-2.7148 1.8125-4.3477 1.8125-1.6367 0-3.1992-0.65234-4.3516-1.8125-0.29297-0.29688-0.69531-0.46484-1.1133-0.46484h-0.14453c-6.6836 0.007812-12.102 5.4258-12.109 12.113v10.547c0 0.41406 0.16406 0.8125 0.45703 1.1055s0.69141 0.45703 1.1055 0.45703h32.305c0.41797 0 0.8125-0.16406 1.1055-0.45703 0.29688-0.29297 0.46094-0.69141 0.46094-1.1055v-10.547c-0.007812-6.6875-5.4258-12.105-12.113-12.113zm8.9844 21.094h-29.176v-8.9805c0.003906-4.7812 3.7461-8.7227 8.5195-8.9727 3.4805 3.0195 8.6523 3.0195 12.133 0 4.7734 0.25 8.5156 4.1914 8.5234 8.9727zm-23.844-33.668c0 5.8086 4.1523 10.531 9.2539 10.531 5.1055 0 9.2578-4.7266 9.2578-10.531 0-5.8086-4.1523-10.531-9.2578-10.531-5.1055-0.003906-9.2539 4.7227-9.2539 10.531zm9.2539-7.4062c3.3828 0 6.1328 3.3203 6.1328 7.4062 0 4.082-2.75 7.4062-6.1328 7.4062-3.3789 0-6.125-3.3203-6.125-7.4062-0.003906-4.0859 2.7461-7.4062 6.125-7.4062zm-43.695 19.98h-0.14453c-0.41797 0-0.81641 0.16797-1.1133 0.46484-1.1484 1.1602-2.7148 1.8125-4.3477 1.8125-1.6367 0-3.1992-0.65234-4.3516-1.8125-0.29297-0.29688-0.69141-0.46484-1.1094-0.46484h-0.14453c-6.6875 0.007812-12.102 5.4258-12.109 12.113v10.547c0 0.41406 0.16406 0.8125 0.45703 1.1055s0.69141 0.45703 1.1055 0.45703h32.305c0.41406 0 0.8125-0.16406 1.1055-0.45703 0.29297-0.29297 0.45703-0.69141 0.45703-1.1055v-10.547c-0.003906-6.6875-5.4219-12.105-12.109-12.113zm8.9844 21.094h-29.18v-8.9805c0.007812-4.7812 3.75-8.7227 8.5234-8.9727 3.4805 3.0195 8.6523 3.0195 12.133 0 4.7734 0.25 8.5156 4.1914 8.5234 8.9727zm-5.332-33.668c0-5.8086-4.1523-10.531-9.2539-10.531-5.1055 0-9.2578 4.7266-9.2578 10.531 0 5.8086 4.1523 10.531 9.2578 10.531 5.1016 0 9.2539-4.7227 9.2539-10.531zm-15.387 0c0-4.082 2.75-7.4062 6.1328-7.4062 3.3789 0 6.125 3.3203 6.125 7.4062 0 4.082-2.75 7.4062-6.125 7.4062-3.3828-0.003906-6.1328-3.3242-6.1328-7.4062z"/></svg>