<svg xmlns="http://www.w3.org/2000/svg" xmlns:xlink="http://www.w3.org/1999/xlink" version="1.1" x="0px" y="0px" viewBox="0 0 96 120" style="enable-background:new 0 0 96 96;" xml:space="preserve"><style type="text/css">
	.st0{fill-rule:evenodd;clip-rule:evenodd;}
</style><path class="st0" fill="currentColor" d="M70.4362869,7.9881172c-0.4782791-0.4529748-0.4992828-1.2080626-0.0472641-1.6858716  c0.4525986-0.4789157,1.2068176-0.4994402,1.6853943-0.0474539c12.4418488,11.7579727,13.7646942,31.1994629,2.893425,44.4776077  l2.2026825-0.5975494c0.6354523-0.1736679,1.2906036,0.2006149,1.4634094,0.8359108  c0.1723557,0.6374741-0.2026443,1.2911644-0.838089,1.4648018l-6.2274246,1.6913185  c-0.864151,0.2387199-1.6893997-0.5468407-1.4704895-1.4356728l1.5450439-6.2669029  c0.1575851-0.6385307,0.803566-1.0279388,1.4426727-0.8715096c0.6396408,0.1585617,1.0302048,0.803566,0.8721771,1.4442749  l-0.4208679,1.7085762C77.6909714,43.3976669,79.9431,36.9053307,79.9431,30.0495148  C79.9431,21.6178074,76.566864,13.7825937,70.4362869,7.9881172L70.4362869,7.9881172z M13.6729946,30.0495148  c0-7.6227264,2.5929108-14.8560638,7.3583241-20.6828861l-2.2015781,0.5976019  c-0.6353455,0.1736164-1.2904854-0.202795-1.4633007-0.8381414c-0.1726971-0.6352949,0.2022648-1.2889524,0.838089-1.4636765  l6.2274208-1.6913385c0.8727512-0.2374058,1.686842,0.5585275,1.470541,1.4367471l-1.5450935,6.2636666  c-0.1593781,0.6463156-0.8080959,1.0288591-1.4430676,0.8726158c-0.6391964-0.1563969-1.0298119-0.8025074-0.8722057-1.4421463  l0.420866-1.7063961c-4.152277,5.3101444-6.4056702,11.813261-6.4056702,18.6539536  c0,8.4306335,3.3762398,16.266922,9.5067596,22.0603256c0.7846756,0.7432671,0.249754,2.0601692-0.8195572,2.0601692  c-0.2940407,0-0.5886078-0.1089249-0.8190136-0.3257217C17.3631687,47.6536598,13.6729946,39.0817528,13.6729946,30.0495148  L13.6729946,30.0495148z M46.8077583,8.4519758v5.3813086c-0.3024368-0.033453-0.5581856-0.1445589-0.8094063-0.3516283  c-3.010643-2.4761162-7.6318054-0.3491926-7.6318054,3.6090975c0,3.9470978,4.6098518,6.0890961,7.6318054,3.608057  c0.2512207-0.2060299,0.5069695-0.3192997,0.8094063-0.3516445v8.5104504h-8.8267021  c-1.1456528,0-2.0775948,0.9308853-2.0775948,2.0774422c0,2.4880371,1.4224052,2.4379272,1.4224052,4.0794296  c0,1.2587662-1.0251274,2.2834702-2.2845268,2.2834702c-1.9309616,0-2.9810066-2.256237-1.7662697-3.7331467  c0.6499786-0.7902794,0.9037857-1.6181316,0.9037857-2.6297531c0-1.1465569-0.9314957-2.0774422-2.0772552-2.0774422h-5.7002659  C27.0000935,17.8760242,35.8272209,9.0506334,46.8077583,8.4519758L46.8077583,8.4519758z M49.1926117,14.150404  c0,1.1466074-0.9324684,2.078516-2.0776291,2.078516c-1.0101738,0-1.8408737-0.2548313-2.6304855-0.9039059  C43.0038719,14.1079235,40.7514,15.1619234,40.7514,17.0907536c0,1.25877,1.0243111,2.2845783,2.284153,2.2845783  c1.6445007,0,1.5869942-1.4227276,4.0794296-1.4227276c1.1451607,0,2.0776291,0.9319401,2.0776291,2.0774422v8.82757h8.5089531  c-0.0327721-0.3041744-0.1448326-0.558733-0.3509979-0.8100376c-2.4828796-3.0252743-0.3366394-7.6324348,3.6084633-7.6324348  c3.9487839,0,6.0889969,4.6124229,3.6083984,7.6324348c-0.2064514,0.2513046-0.318512,0.5058632-0.3514023,0.8100376h5.381752  C68.9982452,17.8760242,60.1731491,9.049509,49.1926117,8.4497957V14.150404L49.1926117,14.150404z M49.1926117,51.6471062  v-5.3824348c0.3024559,0.0345268,0.5582047,0.144558,0.808979,0.3505898  c3.0181389,2.4817543,7.6321487,0.3426018,7.6321487-3.6069832c0-3.9488716-4.6122704-6.0907326-7.6321487-3.6080589  c-0.2507744,0.2060318-0.5065231,0.3171196-0.808979,0.3516464v-8.5104523h8.8267021  c1.1456528,0,2.0775948-0.931942,2.0775948-2.0774422c0-2.4903202-1.4224052-2.436821-1.4224052-4.0794277  c0-1.25877,1.024704-2.2845287,2.2845268-2.2845287c1.9291382,0,2.9817924,2.2554531,1.7662697,3.7342548  c-0.6511726,0.7922192-0.9041786,1.6161041-0.9041786,2.6297016c0,1.1455002,0.931942,2.0774422,2.0776482,2.0774422h5.7002678  C69.0002747,42.2230072,60.1731491,51.04739,49.1926117,51.6471062L49.1926117,51.6471062z M46.8077583,45.9475517  c0-1.1455002,0.932045-2.0774422,2.0776825-2.0774422c1.0107002,0,1.8402405,0.2537727,2.6304817,0.903904  c1.4760437,1.2143478,3.7330475,0.1639099,3.7330475-1.7657356c0-1.260952-1.024704-2.2845306-2.2841377-2.2845306  c-1.6418915,0-1.592308,1.4226799-4.0793915,1.4226799c-1.1456375,0-2.0776825-0.931942-2.0776825-2.0784988v-8.8265152h-8.5093956  c0.0328407,0.3031178,0.1449013,0.558733,0.3513565,0.808979c2.476593,3.0089073,0.3500443,7.6324196-3.6083794,7.6324196  c-3.958786,0-6.0855713-4.6237488-3.6084003-7.6324196c0.2064571-0.250246,0.3180904-0.5058613,0.3510151-0.808979h-5.381752  c0.5994759,10.9815941,9.4245949,19.8081055,20.4055557,20.4078217V45.9475517L46.8077583,45.9475517z M48.0001869,54.0653763  c13.2424622,0,24.0156746-10.7745056,24.0156746-24.0158615c0-13.2435188-10.7732124-24.0169182-24.0156746-24.0169182  c-13.2424126,0-24.0160503,10.7733994-24.0160503,24.0169182C23.9841366,43.2908707,34.7577744,54.0653763,48.0001869,54.0653763  L48.0001869,54.0653763z M80.8429871,85.9262085c-0.3124847,0.2311935-0.5217896,0.3826447-0.9631271,0.3052521  c-0.3071747-0.0539322-0.5220261-0.1930847-0.6960373-0.451973c-1.900795-2.8346558-4.4236984-5.0469131-7.7131195-6.7641296  c-0.7879791-0.4108353-1.7393188,0.1569748-1.7439194,1.0516815l-0.0400314,7.4123764  c0,0.1100311-0.0974274,0.2081909-0.2077484,0.2081909h-8.9763374c-0.1107483,0-0.2077484-0.0981598-0.2077484-0.2081909V75.6650925  c0-0.5036774-0.3172226-0.9534836-0.7915916-1.1217346c-4.4170227-1.5780716-7.7396736-4.2822266-10.1573143-8.2688599  c-0.2932739-0.4832535-0.1551361-1.1099167,0.3143234-1.4249039c0.3326035-0.2242737,0.5427399-0.3566589,0.9745255-0.2620697  c0.3050423,0.0657959,0.5135269,0.2135391,0.6761894,0.4810791c4.4717331,7.3293152,12.3433113,9.5998383,19.290802,11.6018295  c4.4759369,1.3860397,7.9081268,3.9423981,10.4931183,7.8201065C81.4088593,84.9597397,81.2980576,85.590744,80.8429871,85.9262085  L80.8429871,85.9262085z M46.6540718,66.274498c-2.4177971,3.9866333-5.7400055,6.6907883-10.1573181,8.2688599  c-0.4745216,0.168251-0.7913017,0.6180573-0.7913017,1.1217346v11.8143234c0,0.1100311-0.0973778,0.2081909-0.2081909,0.2081909  h-8.9758949c-0.1107483,0-0.2081432-0.0981598-0.2081432-0.2146683l-0.0395851-7.405899  c-0.0050755-0.8909073-0.950779-1.4641495-1.7439709-1.0516815c-3.2893696,1.7172165-5.8123264,3.9294739-7.7131023,6.7641296  c-0.3400116,0.5064774-1.013751,0.6238022-1.50459,0.2610626l-0.1546421-0.1143417  c-0.455019-0.3354645-0.5658178-0.9664688-0.2523775-1.4356689c2.5849895-3.8777084,6.0172005-6.4340668,10.4931221-7.8201065  c6.9479313-2.0019913,14.8195095-4.2725143,19.2908001-11.6018295c0.3170319-0.5200043,0.9868546-0.6667404,1.491539-0.3268814  l0.1596336,0.107872C46.8094978,65.1645813,46.9472427,65.7912445,46.6540718,66.274498L46.6540718,66.274498z   M83.0786667,83.1670227c-2.8625793-4.2929382-6.8269958-7.2462769-11.7832336-8.779007  c-0.0072403-0.0021667-0.0147705-0.0032196-0.0223465-0.0064545c-6.8510818-1.9728775-13.9359932-4.0136337-17.9261017-10.554493  c-1.0257607-1.6805725-3.224781-2.1612091-4.8589058-1.0624466l-0.4878922,0.3613358  c-0.876091-0.7627182-1.9760971-1.1243134-3.1448822-0.869381c-0.9391289,0.2060318-1.7009811,0.7496376-2.2019196,1.5704918  c-3.9905319,6.5408592-11.0750179,8.5816154-17.926527,10.554493c-0.0075283,0.0032349-0.0146828,0.0042877-0.0219212,0.0064545  c-4.9561825,1.5327301-8.9206047,4.4860687-11.783658,8.779007c-1.0217562,1.5306015-0.6610832,3.5865097,0.8211937,4.6780853  c0.862072,0.636116,1.6929226,0.9244156,2.7867632,0.7345123c0.9476795-0.1639252,1.731741-0.6730576,2.2677174-1.473381  c1.3259296-1.9760666,3.0058231-3.6145172,5.1028366-4.9703903l0.029108,5.3435669  c0,1.4291992,1.1628742,2.5919876,2.5924683,2.5919876h8.9758949c1.4296417,0,2.5925331-1.1627884,2.5925331-2.5919876V76.4891815  c4.1139908-1.6330643,7.4379539-4.2897491,9.9103928-7.9096298c2.4724503,3.6198807,5.7963982,6.2765656,9.9100151,7.9096298  v10.9902344c0,1.4291992,1.1628723,2.5919876,2.5924644,2.5919876h8.9763374c1.4291992,0,2.5925217-1.1627884,2.5925217-2.5865936  l0.0286789-5.3489609c2.0969467,1.3558731,3.7772827,2.9943237,5.1032639,4.9703903  c1.0954742,1.6341553,3.3167114,2.0213852,4.8997879,0.8531952l0.1546936-0.1143265  C83.7397995,86.7535324,84.1004562,84.6976242,83.0786667,83.1670227L83.0786667,83.1670227z M71.91436,64.7374268  c0-2.1109085-1.7165833-3.8280716-3.8267136-3.8280716c-2.1104126,0-3.8270111,1.7171631-3.8270111,3.8280716  c0,2.1098099,1.7165985,3.8270187,3.8270111,3.8270187C70.1977768,68.5644455,71.91436,66.8472366,71.91436,64.7374268  L71.91436,64.7374268z M61.8758812,64.7374268c0,3.4246826,2.7868004,6.2118683,6.2117653,6.2118683  c3.4251099,0,6.2114792-2.7871857,6.2114792-6.2118683c0-3.4257355-2.7863693-6.2118683-6.2114792-6.2118683  C64.6626816,58.5255585,61.8758812,61.3116913,61.8758812,64.7374268L61.8758812,64.7374268z M31.7397366,64.7374268  c0-2.1109085-1.7169724-3.8280716-3.8270168-3.8280716c-2.1101284,0-3.8271008,1.7171631-3.8271008,3.8280716  c0,2.1098099,1.7169724,3.8270187,3.8271008,3.8270187C30.0227642,68.5644455,31.7397366,66.8472366,31.7397366,64.7374268  L31.7397366,64.7374268z M21.7012939,64.7374268c0,3.4246826,2.7863197,6.2118683,6.2114258,6.2118683  c3.4250221,0,6.2113419-2.7871857,6.2113419-6.2118683c0-3.4257355-2.7863197-6.2118683-6.2113419-6.2118683  C24.4876137,58.5255585,21.7012939,61.3116913,21.7012939,64.7374268z"/></svg>