<svg xmlns="http://www.w3.org/2000/svg" version="1.1" viewBox="-5.0 -10.0 110.0 135.0">
 <path fill="currentColor" d="m25.41 9.0352c-0.55078-0.94922-0.22656-2.168 0.72656-2.7188 0.94922-0.55078 2.168-0.22656 2.7188 0.72656l1.6992 2.9453c0.55078 0.94922 0.22656 2.168-0.72656 2.7188-0.94922 0.55078-2.168 0.22656-2.7188-0.72656zm-7.2461 8.6914c-0.94922-0.55078-1.2734-1.7695-0.72656-2.7188 0.55078-0.94922 1.7695-1.2773 2.7188-0.72656l2.9453 1.6992c0.94922 0.55078 1.2773 1.7695 0.72656 2.7188s-1.7695 1.2734-2.7188 0.72656zm-1.918 11.156c-1.1016 0-1.9961-0.89453-1.9961-1.9961 0-1.1016 0.89453-1.9961 1.9961-1.9961h3.4023c1.1016 0 1.9961 0.89453 1.9961 1.9961 0 1.1016-0.89453 1.9961-1.9961 1.9961zm3.9141 10.613c-0.94922 0.55078-2.168 0.22656-2.7188-0.72656-0.55078-0.94922-0.22656-2.168 0.72656-2.7188l2.9453-1.6992c0.94922-0.55078 2.168-0.22656 2.7188 0.72656 0.55078 0.94922 0.22656 2.168-0.72656 2.7188zm37.707-3.4414c0.94922 0.55078 1.2734 1.7695 0.72656 2.7188-0.55078 0.94922-1.7695 1.2773-2.7188 0.72656l-2.9453-1.6992c-0.94922-0.55078-1.2773-1.7695-0.72656-2.7188s1.7695-1.2734 2.7188-0.72656zm1.918-11.16c1.1016 0 1.9961 0.89453 1.9961 1.9961s-0.89453 1.9961-1.9961 1.9961h-3.4023c-1.1016 0-1.9961-0.89453-1.9961-1.9961s0.89453-1.9961 1.9961-1.9961zm-3.9141-10.609c0.94922-0.55078 2.168-0.22656 2.7188 0.72656 0.55078 0.94922 0.22656 2.168-0.72656 2.7188l-2.9453 1.6992c-0.94922 0.55078-2.168 0.22656-2.7188-0.72656-0.55078-0.94922-0.22656-2.168 0.72656-2.7188zm-8.6914-7.2461c0.55078-0.94922 1.7695-1.2734 2.7188-0.72656 0.94922 0.55078 1.2773 1.7695 0.72656 2.7188l-1.6992 2.9453c-0.55078 0.94922-1.7695 1.2773-2.7188 0.72656s-1.2734-1.7695-0.72656-2.7188zm-11.16-1.918c0-1.1016 0.89453-1.9961 1.9961-1.9961s1.9961 0.89453 1.9961 1.9961v3.4023c0 1.1016-0.89453 1.9961-1.9961 1.9961s-1.9961-0.89453-1.9961-1.9961zm-8.3242 51.629c3.2578 0 6.2031 1.3203 8.3359 3.4531s3.4531 5.082 3.4531 8.3398c0 3.2578-1.3203 6.2031-3.4531 8.3359-0.19141 0.19141-0.38672 0.37109-0.58594 0.55078 3.0195 0.87109 5.7852 2.2344 8.1719 3.9844 4.4141 3.2305 7.5312 7.7812 8.5859 12.973 0.039063 0.16016 0.0625 0.32422 0.0625 0.49609 0 1.1016-0.89453 1.9961-1.9961 1.9961l-45.148-0.003906c-1.1016 0-1.9961-0.89453-1.9961-1.9961 0-0.17188 0.023438-0.33594 0.0625-0.49609 1.0547-5.1914 4.1758-9.7383 8.5859-12.973 2.3867-1.75 5.1523-3.1133 8.1719-3.9844-0.20312-0.17578-0.39844-0.35938-0.58594-0.55078-2.1328-2.1328-3.4531-5.082-3.4531-8.3359 0-3.2578 1.3203-6.2031 3.4531-8.3398 2.1328-2.1289 5.082-3.4492 8.3359-3.4492zm5.5156 6.2773c-1.4102-1.4102-3.3633-2.2852-5.5195-2.2852-2.1523 0-4.1055 0.87109-5.5156 2.2852-1.4102 1.4102-2.2852 3.3633-2.2852 5.5195 0 2.1523 0.87109 4.1055 2.2852 5.5156 1.4102 1.4102 3.3633 2.2852 5.5156 2.2852 2.1562 0 4.1055-0.87109 5.5195-2.2852 1.4102-1.4102 2.2852-3.3633 2.2852-5.5156 0-2.1602-0.87109-4.1094-2.2852-5.5195zm-19.086 21.594c-2.9492 2.1602-5.1914 5.0156-6.3828 8.2617h39.906c-1.1914-3.2461-3.4336-6.1016-6.3828-8.2617-3.6523-2.6758-8.3867-4.2891-13.57-4.2891-5.1836 0.003907-9.918 1.6133-13.57 4.2891zm13.57-4.2852m44.609-45.027c-3.2578 0-6.2031 1.3203-8.3359 3.4531-2.1328 2.1328-3.4531 5.082-3.4531 8.3359 0 3.2578 1.3203 6.2031 3.4531 8.3359 0.19141 0.19141 0.38672 0.37109 0.58594 0.55078-3.0195 0.87109-5.7852 2.2344-8.1719 3.9844-4.4102 3.2305-7.5312 7.7812-8.5859 12.973-0.039063 0.16016-0.0625 0.32422-0.0625 0.49609 0 1.1016 0.89453 1.9961 1.9961 1.9961h45.152c1.1016 0 1.9961-0.89453 1.9961-1.9961 0-0.17188-0.023437-0.33594-0.0625-0.49609-1.0547-5.1914-4.1758-9.7383-8.5859-12.973-2.3867-1.75-5.1523-3.1133-8.1719-3.9844 0.20312-0.17578 0.39844-0.35938 0.58594-0.55078 2.1328-2.1328 3.4531-5.082 3.4531-8.3359 0-3.2578-1.3203-6.2031-3.4531-8.3359-2.1367-2.1328-5.0859-3.4531-8.3398-3.4531zm5.5156 6.2734c1.4102 1.4102 2.2852 3.3633 2.2852 5.5195 0 2.1523-0.875 4.1055-2.2852 5.5195-1.4102 1.4102-3.3633 2.2852-5.5195 2.2852s-4.1055-0.875-5.5195-2.2852c-1.4102-1.4102-2.2852-3.3633-2.2852-5.5195s0.875-4.1055 2.2852-5.5195c1.4102-1.4102 3.3633-2.2852 5.5195-2.2852 2.1602 0 4.1094 0.87109 5.5195 2.2852zm-48.781-0.26172h2.4766v2.8516c0 1.5195 0.62109 2.8984 1.6211 3.8984s2.3789 1.6211 3.8984 1.6211h1.9609c1.5195 0 2.8984-0.62109 3.8984-1.6211s1.6211-2.3789 1.6211-3.8984v-2.8516h2.4766c1.1016 0 1.9961-0.89453 1.9961-1.9961 0-1.1016-0.89453-1.9961-1.9961-1.9961l-1.7305 0.003906c0.035156-0.066406 0.070312-0.13672 0.10938-0.20312 0.44531-0.79297 1.043-1.5352 1.7852-2.2109 1.3203-1.1992 2.3906-2.6641 3.1289-4.3086 0.71094-1.5938 1.1094-3.3398 1.1094-5.1641 0-3.5938-1.5078-6.8477-3.9492-9.207-2.418-2.3359-5.7539-3.7812-9.4297-3.7812s-7.0078 1.4453-9.4297 3.7812c-2.4414 2.3555-3.9492 5.6094-3.9492 9.207 0 1.8242 0.39453 3.5742 1.1094 5.1641 0.73828 1.6445 1.8086 3.1094 3.1289 4.3086 0.74219 0.67578 1.3398 1.4141 1.7852 2.2109 0.039063 0.066406 0.074219 0.13281 0.10938 0.20312h-1.7305c-1.1016 0-1.9961 0.89453-1.9961 1.9961s0.89453 1.9922 1.9961 1.9922zm10.973-10.277 3.5391-4.1211c0.71484-0.83594 0.61719-2.0898-0.21875-2.8047-0.83594-0.71484-2.0898-0.61719-2.8047 0.21875l-2.5117 2.9258-2.5117-2.9258c-0.71484-0.83594-1.9727-0.93359-2.8047-0.21875-0.83594 0.71484-0.93359 1.9727-0.21875 2.8047l3.5391 4.1211v6.2852h-0.94922c-0.23828-0.74609-0.55078-1.4648-0.93359-2.1484-0.65625-1.168-1.5156-2.2383-2.582-3.207-0.92578-0.84375-1.6719-1.8555-2.1797-2.9844-0.48047-1.0781-0.75-2.2773-0.75-3.543 0-2.4766 1.0391-4.7148 2.7188-6.3359 1.6992-1.6445 4.0586-2.6602 6.668-2.6602 2.6133 0 4.9688 1.0156 6.668 2.6602 1.6797 1.6211 2.7188 3.8633 2.7188 6.3359 0 1.2695-0.26953 2.4688-0.75 3.543-0.50391 1.1289-1.2539 2.1445-2.1797 2.9844-1.0664 0.96484-1.9258 2.0391-2.582 3.207-0.38281 0.68359-0.69531 1.4023-0.93359 2.1484l-0.94141 0.003906zm-1.9883 10.277h2.5v2.8516c0 0.41797-0.17188 0.80078-0.44922 1.0781-0.27734 0.27734-0.66016 0.44922-1.0781 0.44922h-1.9609c-0.41797 0-0.80078-0.17188-1.0781-0.44922-0.27734-0.27734-0.44922-0.66016-0.44922-1.0781v-2.8516zm20.711 21.859c3.6523-2.6758 8.3867-4.2891 13.57-4.2891 5.1836 0 9.918 1.6133 13.57 4.2891 2.9492 2.1602 5.1914 5.0156 6.3828 8.2617h-39.906c1.1914-3.2461 3.4336-6.1016 6.3828-8.2617z" fill-rule="evenodd"/>
</svg>