<svg xmlns="http://www.w3.org/2000/svg" xmlns:xlink="http://www.w3.org/1999/xlink" version="1.1" x="0px" y="0px" viewBox="0 0 100 125" enable-background="new 0 0 100 100" xml:space="preserve"><path fill="currentColor" d="M1.6,45.8l0,4.5l0,4.5c0,1.7,1.2,3.1,2.9,3.4l9.1,1.5c0.9,3.4,2.2,6.6,4.1,9.7l-5.2,7.4c-1,1.4-0.8,3.3,0.4,4.5l3.2,3.2  l3.2,3.2c1.2,1.2,3.1,1.4,4.5,0.4l7.5-5.3c3.1,1.8,6.4,3.1,9.7,4l1.5,8.9c0.3,1.7,1.7,2.9,3.4,2.9l4.5,0l4.5,0  c1.7,0,3.1-1.2,3.4-2.9l1.5-9.1c3.3-0.9,6.5-2.2,9.5-3.9l7.4,5.3c1.4,1,3.3,0.8,4.5-0.4l3.2-3.2l3.2-3.2c1.2-1.2,1.4-3.1,0.4-4.5  l-5.3-7.4c1.8-3.1,3.2-6.3,4-9.7l9-1.5c1.7-0.3,2.9-1.7,2.9-3.4l0-4.5l0-4.5c0-1.7-1.2-3.1-2.9-3.4l-9-1.5c-0.9-3.4-2.2-6.6-4-9.7  l5.3-7.4c1-1.4,0.8-3.3-0.4-4.5l-3.2-3.2L81,12.5c-1.2-1.1-3.1-1.2-4.4-0.3l-7.4,5.3c-3.1-1.8-6.3-3.2-9.7-4l-1.5-9  c-0.3-1.7-1.7-2.9-3.4-2.9l-4.5,0l-4.5,0c-1.7,0-3.1,1.2-3.4,2.9l-1.5,9c-3.5,0.9-6.8,2.2-9.9,4.2l-7.4-5.2c-1.4-1-3.3-0.8-4.5,0.4  l-3.2,3.2l-3.2,3.2c-1.2,1.2-1.3,3.1-0.4,4.5l5.3,7.5c-1.8,3.1-3.1,6.4-4,9.7l-8.9,1.4C2.8,42.7,1.6,44.1,1.6,45.8z M39.9,44.9l6,6  l14.3-14.3l6.2,6.3L52.1,57.1l-6.3,6.2l-6.2-6.3l-6-6L39.9,44.9z"/></svg>