<svg xmlns="http://www.w3.org/2000/svg" version="1.1" viewBox="-5.0 -10.0 110.0 135.0">
 <path fill="currentColor" d="m48.438 69.324v22.863c0 0.86328-0.70312 1.5625-1.5625 1.5625h-15.625c-0.86328 0-1.5625-0.69922-1.5625-1.5625v-32.719c1.0469-0.16797 2.0898-0.35547 3.125-0.54297v31.699h12.5v-34.832c1.0547-0.33594 2.0938-0.67969 3.125-1.043v14.574zm3.125-3.4922v-4.0312l1.6133 1.9062c-0.14062 0.51172-0.26172 1.0312-0.35547 1.5625l-1.2578 0.5625zm0-8.7383v-3.5117c1.0547-0.40625 2.0977-0.84375 3.125-1.2812v0.55469c-1.1953 1.2891-2.2461 2.707-3.125 4.2383zm15.625-11.262v-0.25c1.0703-0.70703 2.1172-1.4375 3.125-2.1875v2.0117c-1.0469 0.074219-2.0938 0.20703-3.125 0.42578zm6.25-0.42578v-4.4688c0.28906-0.23828 0.57812-0.48828 0.86328-0.73828 0.77734-0.67969 1.5312-1.3672 2.2617-2.0625v7.6953c-1.0352-0.21875-2.0781-0.35156-3.125-0.42578zm15.625 7.4492v-21.605h-6.4688c0.74609-1.0195 1.4453-2.0625 2.0938-3.125h5.9375c0.85938 0 1.5625 0.69922 1.5625 1.5625v27.406c-0.88281-1.5312-1.9297-2.9492-3.125-4.2383zm3.125 8.9453v4.0312l-1.2578-0.5625c-0.097657-0.53125-0.21875-1.0508-0.35938-1.5625 0 0 1.1641-1.375 1.6172-1.9062zm0 17.938v12.449c0 0.86328-0.70312 1.5625-1.5625 1.5625h-15.625c-0.86328 0-1.5625-0.69922-1.5625-1.5625v-3.0117c0.4375 0.58594 0.90234 1.1992 0.90234 1.1992 0.75391 1.0117 2.043 1.457 3.2617 1.1562 0.96094-0.23828 1.9023-0.54297 2.8203-0.90625h8.6406v-10.332c0.63281 0.007812 1.2188 0.03125 1.2188 0.03125 0.69531 0.019531 1.3594-0.1875 1.9062-0.58594zm-21.875 9.4375v3.0117c0 0.86328-0.70312 1.5625-1.5625 1.5625h-15.625c-0.86328 0-1.5625-0.69922-1.5625-1.5625v-12.449c0.54297 0.39844 1.207 0.60547 1.9023 0.58594l1.2227-0.03125v10.332h8.6406c0.91406 0.36328 1.8594 0.66797 2.8203 0.90625 1.2188 0.30078 2.5039-0.14453 3.2578-1.1562zm-60.938-28.238h15.625c0.85938 0 1.5625 0.69922 1.5625 1.5625v29.688c0 0.86328-0.70312 1.5625-1.5625 1.5625h-15.625c-0.86328 0-1.5625-0.69922-1.5625-1.5625v-29.688c0-0.86328 0.69922-1.5625 1.5625-1.5625zm1.5625 3.125v26.562h12.5v-26.562zm74.703-51.918c-1.2461 9.1172-6.3906 17.531-14.418 24.523-13.605 11.844-35.543 19.582-60.285 19.582-0.86328 0-1.5625-0.69922-1.5625-1.5625s0.69922-1.5625 1.5625-1.5625c23.891 0 45.102-7.3867 58.234-18.812 7.5898-6.6133 12.461-14.562 13.453-23.219l-5.5859 4.2188c-0.6875 0.51953-1.668 0.375-2.1875-0.3125-0.51953-0.6875-0.38281-1.668 0.30469-2.1875l8.1875-6.1758c0.27734-0.24219 0.63672-0.38672 1.0312-0.38672 0.078125 0 0.15234 0.011719 0.23047 0.019531 0.41016 0.054688 0.78516 0.28125 1.0312 0.61719l5.7812 7.8125c0.51172 0.6875 0.36328 1.6641-0.32812 2.1875-0.69141 0.50781-1.6719 0.36328-2.1836-0.33594zm-8.1602 36.449s0.70703 3.543 0.70312 3.543c0.96484 0.36328 1.8945 0.8125 2.7812 1.3438l3.2109-1.668c0.55859-0.29297 1.2383-0.21875 1.7188 0.1875 2.2695 1.8945 4.1328 4.2305 5.4727 6.8633 0.28906 0.5625 0.21094 1.2422-0.19531 1.7188l-2.3359 2.7617c0.3125 0.98047 0.54297 1.9883 0.6875 3.0117l3.3008 1.4688c0.57422 0.25781 0.9375 0.83203 0.92578 1.4688-0.070312 2.9453-0.73438 5.8633-1.9531 8.5508-0.26172 0.57422-0.83984 0.9375-1.4688 0.91797l-3.6172-0.10547c-0.57031 0.85547-1.2109 1.668-1.9219 2.418l0.90625 3.5c0.15625 0.60156-0.066406 1.25-0.56641 1.6328-2.3516 1.793-5.043 3.0859-7.9102 3.8047-0.60938 0.15625-1.25-0.074219-1.6289-0.57422 0 0-2.1758-2.8945-2.1758-2.8945-1.0234 0.09375-2.0547 0.09375-3.082 0l-2.1758 2.8945c-0.375 0.5-1.0195 0.73047-1.6289 0.57422-2.8672-0.71875-5.5586-2.0117-7.9102-3.8047-0.5-0.38281-0.72266-1.0312-0.5625-1.6328 0 0 0.90234-3.5 0.90625-3.5-0.71094-0.75-1.3555-1.5625-1.9258-2.418l-3.6133 0.10547c-0.63281 0.019531-1.2109-0.34375-1.4688-0.91797-1.2227-2.6875-1.8867-5.6055-1.9531-8.5508-0.015625-0.63672 0.35156-1.2109 0.92188-1.4688l3.3047-1.4688c0.14063-1.0234 0.37109-2.0312 0.6875-3.0117l-2.3359-2.7617c-0.40625-0.47656-0.48438-1.1562-0.19922-1.7188 1.3398-2.6328 3.2031-4.9688 5.4727-6.8633 0.48438-0.40625 1.1602-0.48047 1.7188-0.1875l3.2109 1.668c0.88672-0.53125 1.8164-0.98047 2.7812-1.3438l0.70312-3.543c0.125-0.625 0.60156-1.1055 1.2188-1.2305 2.8984-0.59375 5.8828-0.59375 8.7773 0 0.61719 0.125 1.0977 0.60547 1.2188 1.2305zm-5.6055 7.4062c-6.8984 0-12.492 5.5938-12.492 12.488 0 6.8984 5.5938 12.492 12.492 12.492 6.8945 0 12.492-5.5938 12.492-12.492 0-6.8945-5.5977-12.488-12.492-12.488z" fill-rule="evenodd"/>
</svg>