<svg xmlns="http://www.w3.org/2000/svg" version="1.1" viewBox="-5.0 -10.0 110.0 135.0">
 <path fill="currentColor" fill-rule="evenodd" d="m50 41.566c11.148 0 20.188 9.0391 20.188 20.188 0 11.148-9.0391 20.188-20.188 20.188s-20.188-9.0391-20.188-20.188c0-11.148 9.0391-20.188 20.188-20.188zm0-32.023c3.3789 0 6.1172 2.7383 6.1172 6.1172s-2.7383 6.1172-6.1172 6.1172-6.1172-2.7383-6.1172-6.1172c0-3.375 2.7383-6.1172 6.1172-6.1172zm8.0078 32.871-0.24219-12.316c-0.015625-0.75781 0.22656-1.4141 0.73047-1.9766l13.977-15.723c0.83203-0.9375 0.76562-2.3672-0.14844-3.2227l-0.23438-0.21875c-0.92578-0.86719-2.3828-0.82422-3.2578 0.09375l-11.555 12.16c-0.5 0.52344-1.1055 0.80469-1.8242 0.86328l-11.977 1.0195c-1.0195 0.085938-1.8555 0.64844-2.3242 1.5586l-4.8125 9.3711-4.332 5.4648c0.3125 0.15625 0.60156 0.37109 0.85547 0.63672l0.015625 0.015625 2.2617 2.668 4.8516-5.1602c0.21094-0.22266 0.35937-0.44141 0.49219-0.71484l2.2812-4.6914 0.17969 9.7969c1.3398-0.48047 2.7422-0.82422 4.1914-1.0234l-0.3125-6.7969v-0.027344c0.039062-1.7461 1.5-3.1406 3.2461-3.0977 1.7461 0.039062 3.1406 1.5 3.0977 3.2461v0.023437l-0.54297 6.6211c1.8867 0.24219 3.6875 0.72656 5.3828 1.4297zm-21.406 3.2656-4.2734-5.0352c-0.92188-0.96875-2.4727-1.0039-3.4375-0.078125-0.96875 0.92188-1.0039 2.4727-0.078125 3.4375l4.9688 4.5352c0.84375-1.043 1.7891-2 2.8203-2.8594zm15.289-4.7695c-0.62109-0.054687-1.2539-0.085937-1.8906-0.085937-0.71875 0-1.4258 0.035156-2.125 0.10547l-0.30859-6.7148c0.03125-1.3359 1.1484-2.4062 2.4883-2.375 1.3359 0.03125 2.4062 1.1484 2.375 2.4883zm14.184 7.4453 5.0352-4.2734c0.96875-0.92188 1.0039-2.4727 0.078125-3.4375-0.92188-0.96875-2.4727-1.0039-3.4375-0.078125l-4.5352 4.9688c1.043 0.84375 2 1.7891 2.8594 2.8203zm4.7695 15.289 6.582 0.53906c1.3359 0.03125 2.457-1.0391 2.4883-2.375 0.03125-1.3359-1.0391-2.457-2.375-2.4883l-6.7148 0.30859c0.070312 0.69922 0.10547 1.4062 0.10547 2.125 0 0.63672-0.03125 1.2695-0.085938 1.8906zm-7.4453 14.184 4.2734 5.0352c0.92188 0.96875 2.4727 1.0039 3.4375 0.078125 0.96875-0.92188 1.0039-2.4727 0.078125-3.4375l-4.9688-4.5352c-0.84375 1.043-1.7891 2-2.8203 2.8594zm-15.289 4.7656-0.53906 6.582c-0.03125 1.3359 1.0391 2.457 2.375 2.4883 1.3359 0.03125 2.457-1.0391 2.4883-2.375l-0.30859-6.7148c-0.69922 0.070312-1.4062 0.10547-2.125 0.10547-0.63672 0-1.2695-0.027344-1.8906-0.085938zm-14.184-7.4414-5.0352 4.2734c-0.96875 0.92188-1.0039 2.4727-0.078125 3.4375 0.92188 0.96875 2.4727 1.0039 3.4375 0.078125l4.5352-4.9688c-1.043-0.84375-2-1.7891-2.8594-2.8203zm-4.7656-15.289-6.582-0.53906c-1.3359-0.03125-2.457 1.0391-2.4883 2.375-0.03125 1.3359 1.0391 2.457 2.375 2.4883l6.7148-0.30859c-0.070313-0.69922-0.10547-1.4062-0.10547-2.125-0.003907-0.63672 0.027343-1.2695 0.085937-1.8906zm21.395-6.2305c1.8281 0.125 3.4961 0.85156 4.793 1.9844l4.543-4.543c-2.4688-2.2891-5.7344-3.7305-9.3359-3.8672zm10.121-1.7695-4.543 4.543c1.1328 1.3008 1.8633 2.9648 1.9844 4.793h6.4219c-0.12891-3.6016-1.5742-6.8672-3.8633-9.3359zm3.8672 10.445h-6.4219c-0.125 1.8281-0.85156 3.4961-1.9844 4.793l4.543 4.543c2.2852-2.4688 3.7305-5.7344 3.8633-9.3359zm-4.6523 10.121-4.543-4.543c-1.3008 1.1328-2.9648 1.8633-4.793 1.9844v6.4219c3.6016-0.12891 6.8672-1.5742 9.3359-3.8633zm-10.445 3.8672v-6.4219c-1.8281-0.125-3.4961-0.85156-4.793-1.9844l-4.543 4.543c2.4688 2.2852 5.7344 3.7305 9.3359 3.8633zm-10.121-4.6523 4.543-4.543c-1.1328-1.3008-1.8633-2.9648-1.9844-4.793h-6.4219c0.12891 3.6016 1.5742 6.8672 3.8633 9.3359zm-3.8672-10.445h6.4219c0.125-1.8281 0.85156-3.4922 1.9844-4.793l-4.543-4.543c-2.2852 2.4688-3.7305 5.7344-3.8633 9.3359zm4.6523-10.121 4.543 4.543c1.3008-1.1328 2.9648-1.8633 4.793-1.9844v-6.4219c-3.6016 0.12891-6.8672 1.5742-9.3359 3.8633zm9.8906 7.4727c-0.88281 0-1.6836 0.35938-2.2656 0.9375-0.57812 0.57812-0.9375 1.3789-0.9375 2.2656 0 0.88281 0.35938 1.6836 0.9375 2.2656 0.58203 0.57812 1.3828 0.9375 2.2656 0.9375s1.6836-0.35938 2.2656-0.9375c0.57812-0.57812 0.9375-1.3789 0.9375-2.2656 0-0.88281-0.35938-1.6836-0.9375-2.2656-0.58203-0.57812-1.3828-0.9375-2.2656-0.9375zm1.7422 1.4609c-0.44531-0.44531-1.0625-0.72266-1.7422-0.72266s-1.2969 0.27734-1.7422 0.72266c-0.44531 0.44531-0.72266 1.0625-0.72266 1.7422 0 0.67969 0.27734 1.2969 0.72266 1.7422 0.44531 0.44531 1.0625 0.71875 1.7422 0.71875s1.2969-0.27734 1.7422-0.72266c0.44531-0.44531 0.72266-1.0625 0.72266-1.7422-0.003906-0.67578-0.27734-1.293-0.72266-1.7383z"/>
</svg>